<svg xmlns="http://www.w3.org/2000/svg" width="622" height="153" fill="none" viewBox="0 0 622 153">
  <mask id="a" width="622" height="95" x="0" y="58" fill="#000" maskUnits="userSpaceOnUse">
    <path fill="#fff" d="M0 58h622v95H0z"/>
    <path d="M25.37 148.339c-9.18 0-16.303-3.781-21.37-11.343v-5.947c1.983 4.405 4.847 7.856 8.592 10.352 3.819 2.496 8.372 3.745 13.66 3.745 3.67 0 7.049-.808 10.133-2.423 3.158-1.615 5.655-3.891 7.49-6.828 1.837-2.937 2.755-6.314 2.755-10.132 0-3.45-.588-6.424-1.763-8.92-1.175-2.496-3.12-4.882-5.838-7.158-2.717-2.35-6.646-5.103-11.787-8.26l-3.524-2.202c-3.232-1.983-5.839-3.745-7.821-5.286a25.788 25.788 0 0 1-5.178-5.397c-1.909-2.863-2.864-6.167-2.864-9.91 0-4.993 1.616-8.884 4.847-11.674 3.231-2.79 7.344-4.185 12.337-4.185 6.756 0 12.117 2.496 16.083 7.489v5.616c-1.69-3.084-4.002-5.506-6.94-7.268-2.937-1.762-6.168-2.643-9.693-2.643-3.672 0-6.756 1.138-9.253 3.413-2.497 2.276-3.745 5.323-3.745 9.141 0 3.744 1.138 6.975 3.414 9.691 2.35 2.643 6.279 5.543 11.787 8.7 6.756 3.965 12.007 7.562 15.752 10.793 2.643 2.422 4.553 5.102 5.728 8.039 1.248 2.936 1.872 6.204 1.872 9.801 0 4.552-1.064 8.553-3.194 12.004-2.13 3.45-5.067 6.13-8.812 8.039-3.746 1.836-7.968 2.753-12.668 2.753Zm134.823-84.136v82.594h-3.635V69.489l-38.994 78.85-38.775-79.841v78.299h-3.635V64.203h5.178l37.232 76.648 37.562-76.648h5.067ZM229.123 149c-7.711 0-14.871-2.019-21.48-6.057s-11.86-9.397-15.752-16.078c-3.819-6.755-5.728-13.987-5.728-21.695 0-7.636 1.946-14.757 5.838-21.365 3.892-6.681 9.143-11.967 15.752-15.858 6.609-3.965 13.769-5.947 21.48-5.947 7.784 0 14.944 1.946 21.48 5.837 6.536 3.89 11.713 9.177 15.532 15.858 3.892 6.608 5.838 13.766 5.838 21.475 0 7.929-1.946 15.271-5.838 22.025-3.819 6.681-9.033 12.004-15.642 15.968-6.536 3.891-13.696 5.837-21.48 5.837Zm0-3.194c7.05 0 13.585-1.798 19.607-5.396 6.022-3.671 10.795-8.59 14.32-14.757 3.599-6.24 5.398-12.995 5.398-20.263 0-7.195-1.763-13.876-5.288-20.043-3.525-6.167-8.298-11.05-14.32-14.647-6.021-3.67-12.557-5.506-19.607-5.506-7.123 0-13.696 1.835-19.718 5.506-6.021 3.597-10.831 8.48-14.43 14.647-3.525 6.167-5.287 12.848-5.287 20.043 0 7.268 1.762 14.023 5.287 20.263 3.599 6.167 8.409 11.086 14.43 14.757 6.022 3.598 12.558 5.396 19.608 5.396Z"/>
    <path d="M275.517 149c-7.711 0-14.871-2.019-21.48-6.057s-11.86-9.397-15.752-16.078c-3.819-6.755-5.728-13.987-5.728-21.695 0-7.636 1.946-14.757 5.838-21.365 3.892-6.681 9.143-11.967 15.752-15.858 6.609-3.965 13.769-5.947 21.48-5.947 7.784 0 14.944 1.946 21.48 5.837 6.536 3.89 11.713 9.177 15.532 15.858 3.892 6.608 5.838 13.766 5.838 21.475 0 7.929-1.946 15.271-5.838 22.025-3.819 6.681-9.033 12.004-15.642 15.968-6.536 3.891-13.696 5.837-21.48 5.837Zm0-3.194c7.05 0 13.585-1.798 19.607-5.396 6.022-3.671 10.795-8.59 14.32-14.757 3.599-6.24 5.398-12.995 5.398-20.263 0-7.195-1.763-13.876-5.288-20.043-3.525-6.167-8.298-11.05-14.32-14.647-6.021-3.67-12.557-5.506-19.607-5.506-7.123 0-13.696 1.835-19.718 5.506-6.021 3.597-10.831 8.48-14.43 14.647-3.525 6.167-5.287 12.848-5.287 20.043 0 7.268 1.762 14.023 5.287 20.263 3.599 6.167 8.409 11.086 14.43 14.757 6.022 3.598 12.558 5.396 19.608 5.396Zm73.881-78.41h-19.056v-3.194h41.528v3.194h-18.837v79.401h-3.635v-79.4Zm45.598-3.193h3.635v47.905h56.619V64.202h3.635v82.595h-3.635v-31.496h-56.619v31.496h-3.635V64.203Zm93.992 0h3.635v82.594h-3.635V64.203Zm33.726 0h29.632v3.193h-25.997v44.932h21.701v3.194h-21.701v28.082h25.997v3.193h-29.632V64.203Zm70.612 84.136c-9.18 0-16.303-3.781-21.37-11.343v-5.947c1.982 4.405 4.846 7.856 8.592 10.352 3.818 2.496 8.371 3.745 13.659 3.745 3.672 0 7.05-.808 10.134-2.423 3.158-1.615 5.655-3.891 7.49-6.828 1.836-2.937 2.754-6.314 2.754-10.132 0-3.45-.587-6.424-1.762-8.92-1.175-2.496-3.121-4.882-5.838-7.158-2.718-2.35-6.646-5.103-11.787-8.26l-3.525-2.202c-3.231-1.983-5.838-3.745-7.821-5.286a25.813 25.813 0 0 1-5.177-5.397c-1.909-2.863-2.864-6.167-2.864-9.91 0-4.993 1.616-8.884 4.847-11.674 3.231-2.79 7.343-4.185 12.337-4.185 6.756 0 12.117 2.496 16.083 7.489v5.616c-1.689-3.084-4.003-5.506-6.94-7.268-2.938-1.762-6.169-2.643-9.694-2.643-3.672 0-6.756 1.138-9.253 3.413-2.496 2.276-3.745 5.323-3.745 9.141 0 3.744 1.138 6.975 3.415 9.691 2.35 2.643 6.279 5.543 11.786 8.7 6.757 3.965 12.007 7.562 15.752 10.793 2.644 2.422 4.553 5.102 5.728 8.039 1.249 2.936 1.873 6.204 1.873 9.801 0 4.552-1.065 8.553-3.194 12.004-2.13 3.45-5.068 6.13-8.813 8.039-3.745 1.836-7.968 2.753-12.667 2.753Z"/>
  </mask>
  <path fill="#161E29" d="M25.37 148.339c-9.18 0-16.303-3.781-21.37-11.343v-5.947c1.983 4.405 4.847 7.856 8.592 10.352 3.819 2.496 8.372 3.745 13.66 3.745 3.67 0 7.049-.808 10.133-2.423 3.158-1.615 5.655-3.891 7.49-6.828 1.837-2.937 2.755-6.314 2.755-10.132 0-3.45-.588-6.424-1.763-8.92-1.175-2.496-3.12-4.882-5.838-7.158-2.717-2.35-6.646-5.103-11.787-8.26l-3.524-2.202c-3.232-1.983-5.839-3.745-7.821-5.286a25.788 25.788 0 0 1-5.178-5.397c-1.909-2.863-2.864-6.167-2.864-9.91 0-4.993 1.616-8.884 4.847-11.674 3.231-2.79 7.344-4.185 12.337-4.185 6.756 0 12.117 2.496 16.083 7.489v5.616c-1.69-3.084-4.002-5.506-6.94-7.268-2.937-1.762-6.168-2.643-9.693-2.643-3.672 0-6.756 1.138-9.253 3.413-2.497 2.276-3.745 5.323-3.745 9.141 0 3.744 1.138 6.975 3.414 9.691 2.35 2.643 6.279 5.543 11.787 8.7 6.756 3.965 12.007 7.562 15.752 10.793 2.643 2.422 4.553 5.102 5.728 8.039 1.248 2.936 1.872 6.204 1.872 9.801 0 4.552-1.064 8.553-3.194 12.004-2.13 3.45-5.067 6.13-8.812 8.039-3.746 1.836-7.968 2.753-12.668 2.753Zm134.823-84.136v82.594h-3.635V69.489l-38.994 78.85-38.775-79.841v78.299h-3.635V64.203h5.178l37.232 76.648 37.562-76.648h5.067ZM229.123 149c-7.711 0-14.871-2.019-21.48-6.057s-11.86-9.397-15.752-16.078c-3.819-6.755-5.728-13.987-5.728-21.695 0-7.636 1.946-14.757 5.838-21.365 3.892-6.681 9.143-11.967 15.752-15.858 6.609-3.965 13.769-5.947 21.48-5.947 7.784 0 14.944 1.946 21.48 5.837 6.536 3.89 11.713 9.177 15.532 15.858 3.892 6.608 5.838 13.766 5.838 21.475 0 7.929-1.946 15.271-5.838 22.025-3.819 6.681-9.033 12.004-15.642 15.968-6.536 3.891-13.696 5.837-21.48 5.837Zm0-3.194c7.05 0 13.585-1.798 19.607-5.396 6.022-3.671 10.795-8.59 14.32-14.757 3.599-6.24 5.398-12.995 5.398-20.263 0-7.195-1.763-13.876-5.288-20.043-3.525-6.167-8.298-11.05-14.32-14.647-6.021-3.67-12.557-5.506-19.607-5.506-7.123 0-13.696 1.835-19.718 5.506-6.021 3.597-10.831 8.48-14.43 14.647-3.525 6.167-5.287 12.848-5.287 20.043 0 7.268 1.762 14.023 5.287 20.263 3.599 6.167 8.409 11.086 14.43 14.757 6.022 3.598 12.558 5.396 19.608 5.396Z"/>
  <path fill="#161E29" d="M275.517 149c-7.711 0-14.871-2.019-21.48-6.057s-11.86-9.397-15.752-16.078c-3.819-6.755-5.728-13.987-5.728-21.695 0-7.636 1.946-14.757 5.838-21.365 3.892-6.681 9.143-11.967 15.752-15.858 6.609-3.965 13.769-5.947 21.48-5.947 7.784 0 14.944 1.946 21.48 5.837 6.536 3.89 11.713 9.177 15.532 15.858 3.892 6.608 5.838 13.766 5.838 21.475 0 7.929-1.946 15.271-5.838 22.025-3.819 6.681-9.033 12.004-15.642 15.968-6.536 3.891-13.696 5.837-21.48 5.837Zm0-3.194c7.05 0 13.585-1.798 19.607-5.396 6.022-3.671 10.795-8.59 14.32-14.757 3.599-6.24 5.398-12.995 5.398-20.263 0-7.195-1.763-13.876-5.288-20.043-3.525-6.167-8.298-11.05-14.32-14.647-6.021-3.67-12.557-5.506-19.607-5.506-7.123 0-13.696 1.835-19.718 5.506-6.021 3.597-10.831 8.48-14.43 14.647-3.525 6.167-5.287 12.848-5.287 20.043 0 7.268 1.762 14.023 5.287 20.263 3.599 6.167 8.409 11.086 14.43 14.757 6.022 3.598 12.558 5.396 19.608 5.396Zm73.881-78.41h-19.056v-3.194h41.528v3.194h-18.837v79.401h-3.635v-79.4Zm45.598-3.193h3.635v47.905h56.619V64.202h3.635v82.595h-3.635v-31.496h-56.619v31.496h-3.635V64.203Zm93.992 0h3.635v82.594h-3.635V64.203Zm33.726 0h29.632v3.193h-25.997v44.932h21.701v3.194h-21.701v28.082h25.997v3.193h-29.632V64.203Zm70.612 84.136c-9.18 0-16.303-3.781-21.37-11.343v-5.947c1.982 4.405 4.846 7.856 8.592 10.352 3.818 2.496 8.371 3.745 13.659 3.745 3.672 0 7.05-.808 10.134-2.423 3.158-1.615 5.655-3.891 7.49-6.828 1.836-2.937 2.754-6.314 2.754-10.132 0-3.45-.587-6.424-1.762-8.92-1.175-2.496-3.121-4.882-5.838-7.158-2.718-2.35-6.646-5.103-11.787-8.26l-3.525-2.202c-3.231-1.983-5.838-3.745-7.821-5.286a25.813 25.813 0 0 1-5.177-5.397c-1.909-2.863-2.864-6.167-2.864-9.91 0-4.993 1.616-8.884 4.847-11.674 3.231-2.79 7.343-4.185 12.337-4.185 6.756 0 12.117 2.496 16.083 7.489v5.616c-1.689-3.084-4.003-5.506-6.94-7.268-2.938-1.762-6.169-2.643-9.694-2.643-3.672 0-6.756 1.138-9.253 3.413-2.496 2.276-3.745 5.323-3.745 9.141 0 3.744 1.138 6.975 3.415 9.691 2.35 2.643 6.279 5.543 11.786 8.7 6.757 3.965 12.007 7.562 15.752 10.793 2.644 2.422 4.553 5.102 5.728 8.039 1.249 2.936 1.873 6.204 1.873 9.801 0 4.552-1.065 8.553-3.194 12.004-2.13 3.45-5.068 6.13-8.813 8.039-3.745 1.836-7.968 2.753-12.667 2.753Z"/>
  <path stroke="#161E29" stroke-linejoin="round" stroke-width="8" d="M25.37 148.339c-9.18 0-16.303-3.781-21.37-11.343v-5.947c1.983 4.405 4.847 7.856 8.592 10.352 3.819 2.496 8.372 3.745 13.66 3.745 3.67 0 7.049-.808 10.133-2.423 3.158-1.615 5.655-3.891 7.49-6.828 1.837-2.937 2.755-6.314 2.755-10.132 0-3.45-.588-6.424-1.763-8.92-1.175-2.496-3.12-4.882-5.838-7.158-2.717-2.35-6.646-5.103-11.787-8.26l-3.524-2.202c-3.232-1.983-5.839-3.745-7.821-5.286a25.788 25.788 0 0 1-5.178-5.397c-1.909-2.863-2.864-6.167-2.864-9.91 0-4.993 1.616-8.884 4.847-11.674 3.231-2.79 7.344-4.185 12.337-4.185 6.756 0 12.117 2.496 16.083 7.489v5.616c-1.69-3.084-4.002-5.506-6.94-7.268-2.937-1.762-6.168-2.643-9.693-2.643-3.672 0-6.756 1.138-9.253 3.413-2.497 2.276-3.745 5.323-3.745 9.141 0 3.744 1.138 6.975 3.414 9.691 2.35 2.643 6.279 5.543 11.787 8.7 6.756 3.965 12.007 7.562 15.752 10.793 2.643 2.422 4.553 5.102 5.728 8.039 1.248 2.936 1.872 6.204 1.872 9.801 0 4.552-1.064 8.553-3.194 12.004-2.13 3.45-5.067 6.13-8.812 8.039-3.746 1.836-7.968 2.753-12.668 2.753Zm134.823-84.136v82.594h-3.635V69.489l-38.994 78.85-38.775-79.841v78.299h-3.635V64.203h5.178l37.232 76.648 37.562-76.648h5.067ZM229.123 149c-7.711 0-14.871-2.019-21.48-6.057s-11.86-9.397-15.752-16.078c-3.819-6.755-5.728-13.987-5.728-21.695 0-7.636 1.946-14.757 5.838-21.365 3.892-6.681 9.143-11.967 15.752-15.858 6.609-3.965 13.769-5.947 21.48-5.947 7.784 0 14.944 1.946 21.48 5.837 6.536 3.89 11.713 9.177 15.532 15.858 3.892 6.608 5.838 13.766 5.838 21.475 0 7.929-1.946 15.271-5.838 22.025-3.819 6.681-9.033 12.004-15.642 15.968-6.536 3.891-13.696 5.837-21.48 5.837Zm0-3.194c7.05 0 13.585-1.798 19.607-5.396 6.022-3.671 10.795-8.59 14.32-14.757 3.599-6.24 5.398-12.995 5.398-20.263 0-7.195-1.763-13.876-5.288-20.043-3.525-6.167-8.298-11.05-14.32-14.647-6.021-3.67-12.557-5.506-19.607-5.506-7.123 0-13.696 1.835-19.718 5.506-6.021 3.597-10.831 8.48-14.43 14.647-3.525 6.167-5.287 12.848-5.287 20.043 0 7.268 1.762 14.023 5.287 20.263 3.599 6.167 8.409 11.086 14.43 14.757 6.022 3.598 12.558 5.396 19.608 5.396Z" mask="url(#a)"/>
  <path stroke="#161E29" stroke-linejoin="round" stroke-width="8" d="M275.517 149c-7.711 0-14.871-2.019-21.48-6.057s-11.86-9.397-15.752-16.078c-3.819-6.755-5.728-13.987-5.728-21.695 0-7.636 1.946-14.757 5.838-21.365 3.892-6.681 9.143-11.967 15.752-15.858 6.609-3.965 13.769-5.947 21.48-5.947 7.784 0 14.944 1.946 21.48 5.837 6.536 3.89 11.713 9.177 15.532 15.858 3.892 6.608 5.838 13.766 5.838 21.475 0 7.929-1.946 15.271-5.838 22.025-3.819 6.681-9.033 12.004-15.642 15.968-6.536 3.891-13.696 5.837-21.48 5.837Zm0-3.194c7.05 0 13.585-1.798 19.607-5.396 6.022-3.671 10.795-8.59 14.32-14.757 3.599-6.24 5.398-12.995 5.398-20.263 0-7.195-1.763-13.876-5.288-20.043-3.525-6.167-8.298-11.05-14.32-14.647-6.021-3.67-12.557-5.506-19.607-5.506-7.123 0-13.696 1.835-19.718 5.506-6.021 3.597-10.831 8.48-14.43 14.647-3.525 6.167-5.287 12.848-5.287 20.043 0 7.268 1.762 14.023 5.287 20.263 3.599 6.167 8.409 11.086 14.43 14.757 6.022 3.598 12.558 5.396 19.608 5.396Zm73.881-78.41h-19.056v-3.194h41.528v3.194h-18.837v79.401h-3.635v-79.4Zm45.598-3.193h3.635v47.905h56.619V64.202h3.635v82.595h-3.635v-31.496h-56.619v31.496h-3.635V64.203Zm93.992 0h3.635v82.594h-3.635V64.203Zm33.726 0h29.632v3.193h-25.997v44.932h21.701v3.194h-21.701v28.082h25.997v3.193h-29.632V64.203Zm70.612 84.136c-9.18 0-16.303-3.781-21.37-11.343v-5.947c1.982 4.405 4.846 7.856 8.592 10.352 3.818 2.496 8.371 3.745 13.659 3.745 3.672 0 7.05-.808 10.134-2.423 3.158-1.615 5.655-3.891 7.49-6.828 1.836-2.937 2.754-6.314 2.754-10.132 0-3.45-.587-6.424-1.762-8.92-1.175-2.496-3.121-4.882-5.838-7.158-2.718-2.35-6.646-5.103-11.787-8.26l-3.525-2.202c-3.231-1.983-5.838-3.745-7.821-5.286a25.813 25.813 0 0 1-5.177-5.397c-1.909-2.863-2.864-6.167-2.864-9.91 0-4.993 1.616-8.884 4.847-11.674 3.231-2.79 7.343-4.185 12.337-4.185 6.756 0 12.117 2.496 16.083 7.489v5.616c-1.689-3.084-4.003-5.506-6.94-7.268-2.938-1.762-6.169-2.643-9.694-2.643-3.672 0-6.756 1.138-9.253 3.413-2.496 2.276-3.745 5.323-3.745 9.141 0 3.744 1.138 6.975 3.415 9.691 2.35 2.643 6.279 5.543 11.786 8.7 6.757 3.965 12.007 7.562 15.752 10.793 2.644 2.422 4.553 5.102 5.728 8.039 1.249 2.936 1.873 6.204 1.873 9.801 0 4.552-1.065 8.553-3.194 12.004-2.13 3.45-5.068 6.13-8.813 8.039-3.745 1.836-7.968 2.753-12.667 2.753Z" mask="url(#a)"/>
  <path fill="#0FA44D" d="M226.897 23.485c3.984 7.32 15.374 22.137 17.057 30.512.473 2.353-17.643 1.414-27.997-12.193-8.404-11.044-9.533-34-8.749-41.804 52.494 6.967 47.245 53.997 43.745 47.03-2.705-5.387-16.522-17.713-23.765-23.776-.166-.139-.395.04-.291.23Z"/>
  <path fill="#0FA44D" d="M277.77 28.394c-3.111 6.05-11.619 18.001-12.887 24.785-.36 1.926 13.424 1.158 21.302-9.976 6.394-9.036 7.253-27.818 6.657-34.203-39.941 5.7-35.947 44.18-33.285 38.479 2.039-4.364 12.367-14.295 17.919-19.306.162-.145.393.028.294.221Z"/>
  <circle cx="229.5" cy="105.5" r="41" stroke="#DD2D50" stroke-width="13"/>
  <circle cx="275.5" cy="105.5" r="41" stroke="#DD2D50" stroke-width="13"/>
</svg>
