<svg width="1721" height="1402" viewBox="0 0 1721 1402" fill="none" xmlns="http://www.w3.org/2000/svg">
<path d="M1608.57 282.023C1706.57 358.573 1740.63 516.994 1708.67 637.167C1674.54 765.441 1505.4 808.927 1437.99 923.272C1386.11 1011.28 1425.51 1134.52 1366.36 1217.82C1306.49 1302.12 1210.71 1364.22 1109.57 1385.74C1010.19 1406.88 913.857 1333.32 812.282 1335.68C704.682 1338.19 606.041 1414.88 499.454 1399.94C386.69 1384.14 281.927 1325.24 196.967 1249.43C108.131 1170.16 13.57 1073.77 1.20341 955.355C-11.4323 834.365 99.0273 735.923 131.083 618.574C158.601 517.839 107.138 389.82 176.913 312.127C250.319 230.392 390.968 268.193 489.461 219.529C571.741 178.875 618.952 86.3744 703.937 51.7286C794.631 14.755 900.359 -19.5219 992.168 14.5891C1085.33 49.2021 1099.57 193.042 1190.74 232.598C1320.82 289.035 1496.83 194.736 1608.57 282.023Z" fill="#DD2D50"/>
</svg>
