<svg xmlns="http://www.w3.org/2000/svg" width="156" height="39" fill="none" viewBox="0 0 156 39">
  <path fill="#FFFFFF" d="M10.642 22.657c2.429 1.694 4.027 3.148 4.793 4.362.768 1.183 1.151 2.509 1.151 3.979 0 2.269-.799 4.154-2.397 5.656-1.598 1.502-3.611 2.253-6.04 2.253-2.397 0-4.362-.814-5.896-2.444C.751 34.8 0 32.692 0 30.135c.511-.224 1.119-.383 1.822-.48a8.51 8.51 0 0 1 1.965-.143c-.064 1.981.288 3.547 1.055 4.698.799 1.118 1.901 1.677 3.307 1.677 1.087 0 1.934-.335 2.54-1.006.64-.703.96-1.646.96-2.828 0-.991-.304-1.918-.911-2.78-.575-.864-1.87-1.998-3.883-3.404-2.429-1.726-4.027-3.212-4.794-4.458-.767-1.247-1.15-2.637-1.15-4.17 0-2.142.687-3.868 2.061-5.178 1.406-1.31 3.276-1.965 5.609-1.965 2.237 0 4.01.607 5.32 1.821 1.31 1.183 2.19 3.02 2.637 5.513a6.57 6.57 0 0 1-1.822.719c-.639.16-1.406.288-2.3.383-.288-1.821-.736-3.131-1.343-3.93-.607-.831-1.438-1.247-2.492-1.247-.831 0-1.502.288-2.014.863-.511.543-.767 1.294-.767 2.253 0 .99.304 1.918.911 2.78.607.863 1.918 1.998 3.93 3.404Zm40.665-3.835c0 2.908-.287 6.232-.863 9.97-.543 3.708-1.182 6.856-1.917 9.444a22.626 22.626 0 0 1-2.684-.24 18.448 18.448 0 0 1-2.253-.479c.894-3.579 1.566-6.935 2.013-10.066.447-3.164.671-6.056.671-8.677 0-1.758-.208-3.02-.623-3.787-.416-.799-1.087-1.198-2.014-1.198-.894 0-1.79.495-2.684 1.486-.895.99-1.694 2.38-2.397 4.17.032.192.048.416.048.671v1.199c0 2.3-.191 4.921-.575 7.861-.384 2.94-.815 5.353-1.294 7.239-.608 0-1.31-.048-2.11-.144a41.626 41.626 0 0 1-2.588-.527c.607-3.292 1.038-6.056 1.294-8.293.256-2.237.384-4.235.384-5.992 0-1.758-.208-3.02-.623-3.787-.416-.8-1.087-1.199-2.014-1.199-.99 0-1.965.48-2.924 1.438-.959.927-1.758 2.221-2.397 3.883a346.305 346.305 0 0 1-.096 5.177v2.733c0 1.47.016 2.94.048 4.41.064 1.438.128 2.524.192 3.26-.511.16-1.182.303-2.013.43a14.3 14.3 0 0 1-2.253.193c-.32-4.027-.608-8.581-.863-13.662-.224-5.114-.336-9.332-.336-12.655.448-.224.991-.4 1.63-.528a10.741 10.741 0 0 1 2.014-.191c.447 0 .846.015 1.198.047.351.032.719.096 1.102.192a40.427 40.427 0 0 0-.24 2.589c-.063.959-.127 2.029-.191 3.211.959-1.534 2.045-2.684 3.26-3.451 1.214-.799 2.508-1.198 3.883-1.198 1.15 0 2.109.271 2.876.814.767.512 1.358 1.295 1.773 2.35 1.087-1.95 2.285-3.404 3.596-4.363 1.342-.99 2.796-1.486 4.362-1.486 1.917 0 3.323.751 4.218 2.253.927 1.47 1.39 3.771 1.39 6.903Zm4.081 6.615c0-4.218 1.038-7.67 3.116-10.354 2.077-2.684 4.745-4.027 8.005-4.027 2.62 0 4.682.927 6.184 2.78 1.502 1.822 2.253 4.33 2.253 7.527 0 4.666-.991 8.516-2.972 11.552-1.95 3.004-4.57 4.506-7.862 4.506-2.684 0-4.81-1.102-6.375-3.307-1.566-2.205-2.35-5.097-2.35-8.677Zm14.38-1.917c0-3.1-.367-5.385-1.102-6.855-.703-1.502-1.79-2.253-3.26-2.253-1.374 0-2.556 1.007-3.547 3.02-.99 1.981-1.486 4.426-1.486 7.334 0 2.62.415 4.842 1.246 6.663.863 1.79 2.014 2.685 3.452 2.685 1.278 0 2.38-1.039 3.307-3.116.927-2.11 1.39-4.602 1.39-7.478Z"/>
  <path fill="#FFFFFF" d="M62.581 25.437c0-4.218 1.039-7.67 3.116-10.354 2.077-2.684 4.746-4.027 8.005-4.027 2.621 0 4.682.927 6.184 2.78 1.502 1.822 2.253 4.33 2.253 7.527 0 4.666-.99 8.516-2.972 11.552-1.95 3.004-4.57 4.506-7.861 4.506-2.685 0-4.81-1.102-6.376-3.307-1.566-2.205-2.349-5.097-2.349-8.677Zm14.381-1.917c0-3.1-.367-5.385-1.102-6.855-.704-1.502-1.79-2.253-3.26-2.253-1.374 0-2.557 1.007-3.547 3.02-.991 1.981-1.486 4.426-1.486 7.334 0 2.62.415 4.842 1.246 6.663.863 1.79 2.013 2.685 3.451 2.685 1.279 0 2.381-1.039 3.308-3.116.927-2.11 1.39-4.602 1.39-7.478Zm19.749 3.212c.64.064 1.263.223 1.87.479a8.595 8.595 0 0 1 1.725.815c-.063 2.62-.639 4.698-1.725 6.232-1.087 1.502-2.605 2.253-4.554 2.253-2.27 0-4.01-1.15-5.225-3.452-1.215-2.333-1.822-5.688-1.822-10.066 0-1.47.032-2.893.096-4.267.096-1.406.224-2.764.384-4.074l-2.014-.336a41.819 41.819 0 0 1-1.486-.288c0-.543.064-1.086.192-1.63.128-.575.287-1.054.48-1.438.479.128.99.24 1.533.336.543.096 1.119.176 1.726.24a54.6 54.6 0 0 1 .575-3.164c.224-1.055.464-2.093.72-3.116a36.07 36.07 0 0 1 3.02.288c.894.127 1.661.303 2.3.527a40.153 40.153 0 0 0-.767 2.636c-.224.991-.447 2.062-.671 3.212 1.246.032 2.477.032 3.691 0a60.731 60.731 0 0 0 3.595-.287c0 .447-.048.942-.143 1.486a9.196 9.196 0 0 1-.432 1.534 61.54 61.54 0 0 1-3.595.287 45.11 45.11 0 0 1-3.595.048c-.224 1.47-.4 2.94-.528 4.41a65.58 65.58 0 0 0-.143 4.267c0 3.163.207 5.56.623 7.19.415 1.598 1.038 2.397 1.87 2.397.734 0 1.293-.527 1.677-1.582.384-1.087.591-2.732.623-4.937Zm26.589-5.609c0 2.589-.399 5.64-1.198 9.156-.767 3.515-1.582 6.248-2.445 8.197a8.875 8.875 0 0 1-2.205-.383 15.924 15.924 0 0 1-2.157-.768 52.23 52.23 0 0 0 2.157-8.197c.543-2.844.815-5.496.815-7.957 0-2.237-.224-3.787-.671-4.65-.416-.863-1.167-1.294-2.253-1.294-1.055 0-2.141.591-3.26 1.773-1.086 1.183-1.997 2.78-2.732 4.794-.032.32-.048.655-.048 1.007v1.534c0 1.47.064 3.307.192 5.512.127 2.206.255 3.98.383 5.321-.447.128-1.119.24-2.013.336-.895.096-1.742.144-2.541.144-.256-3.26-.447-6.488-.575-9.683a230.533 230.533 0 0 1-.192-9.108c0-2.62.08-5.433.24-8.437.16-3.036.351-5.321.575-6.855.447-.256 1.007-.447 1.678-.575a8.866 8.866 0 0 1 2.061-.24c.224 0 .527.032.911.096.383.064.863.16 1.438.287a100.274 100.274 0 0 0-1.199 7.143 126.83 126.83 0 0 0-.719 8.197c.927-1.566 1.998-2.78 3.212-3.643 1.247-.863 2.541-1.294 3.883-1.294 2.333 0 4.027.767 5.081 2.3 1.055 1.535 1.582 3.963 1.582 7.287Zm10.262-19.846c.543 0 1.039.048 1.486.144.447.096.863.256 1.246.48a40.552 40.552 0 0 0-1.006 2.732 24.293 24.293 0 0 0-.719 2.828c-.48.096-1.071.16-1.774.192a32.23 32.23 0 0 1-2.493 0 7.25 7.25 0 0 1-.191-1.103 11.627 11.627 0 0 1-.048-1.054c0-.64.048-1.295.143-1.966.128-.703.288-1.278.48-1.725a3.865 3.865 0 0 1 1.294-.432c.447-.096.975-.128 1.582-.096Zm-4.41 11.697a6.113 6.113 0 0 1 1.63-.575 7.31 7.31 0 0 1 1.869-.24c.32 0 .639.016.959.048.32.032.623.08.911.144-.671 3.068-1.167 6.87-1.486 11.408-.32 4.506-.4 8.885-.24 13.135-.352.16-.783.288-1.294.384a8.313 8.313 0 0 1-1.534.143c-.256 0-.496-.016-.719-.047a1.41 1.41 0 0 1-.528-.096 90.754 90.754 0 0 1-.671-12.608c.096-4.314.464-8.213 1.103-11.696Zm13.474 8.58c.799.288 1.662.512 2.588.672.927.127 1.854.191 2.781.191.287 0 .639-.016 1.054-.048.416-.064.719-.111.911-.143.224-.863.383-1.662.479-2.397.128-.767.192-1.47.192-2.11 0-1.246-.208-2.125-.623-2.636-.384-.543-1.007-.815-1.87-.815-1.15 0-2.221.671-3.211 2.013-.991 1.343-1.758 3.1-2.301 5.273Zm9.539 7c.671.127 1.358.383 2.061.766A6.201 6.201 0 0 1 156 30.614c-.575 1.79-1.854 3.404-3.835 4.842-1.949 1.406-4.059 2.11-6.328 2.11-2.78 0-4.953-.992-6.519-2.973-1.566-1.981-2.349-4.666-2.349-8.053 0-3.963 1.135-7.51 3.404-10.642 2.301-3.164 5.017-4.746 8.149-4.746 2.077 0 3.723.623 4.937 1.87 1.215 1.246 1.822 2.908 1.822 4.985 0 1.087-.112 2.205-.336 3.356-.191 1.15-.463 2.173-.815 3.068-.735.287-1.629.51-2.684.67-1.023.129-2.269.193-3.739.193-.895 0-1.822-.064-2.78-.192a21.415 21.415 0 0 1-2.829-.671 21.302 21.302 0 0 1-.095 1.342v.719c0 2.365.399 4.266 1.198 5.704.799 1.438 1.869 2.157 3.212 2.157 1.086 0 2.205-.575 3.355-1.725 1.151-1.183 1.95-2.54 2.397-4.075Z"/>
</svg>
